<svg xmlns="http://www.w3.org/2000/svg" fill="none" viewBox="0 0 248 84"><path fill="#000" d="M103.664 21.854V4.734h5.99c1.19 0 2.18.21 2.95.61.78.41 1.35.96 1.73 1.65.38.69.57 1.45.57 2.29 0 .74-.13 1.34-.39 1.82s-.6.86-1.02 1.14c-.42.28-.88.49-1.37.62v.17c.52.03 1.05.22 1.58.55.53.33.97.81 1.33 1.44.36.63.54 1.39.54 2.29 0 .9-.2 1.63-.58 2.32-.39.68-1.01 1.23-1.85 1.63-.84.4-1.94.6-3.29.6h-6.19v-.01Zm2.07-9.6h3.84c.62 0 1.19-.12 1.69-.37s.91-.59 1.2-1.04c.3-.45.45-.97.45-1.57 0-.75-.26-1.39-.79-1.92-.52-.53-1.35-.79-2.49-.79h-3.91v5.68l.01.01Zm0 7.76h4.11c1.35 0 2.32-.26 2.89-.79.57-.53.86-1.17.86-1.92 0-.58-.15-1.12-.44-1.61-.29-.49-.72-.89-1.26-1.19-.55-.3-1.19-.45-1.94-.45h-4.21v5.95l-.01.01ZM133.424 13.294c0 1.81-.33 3.37-.98 4.68-.65 1.31-1.55 2.33-2.68 3.04-1.14.71-2.44 1.07-3.9 1.07s-2.76-.36-3.9-1.07c-1.14-.71-2.03-1.73-2.68-3.04-.65-1.32-.98-2.88-.98-4.68 0-1.8.33-3.37.98-4.68.65-1.32 1.55-2.33 2.68-3.04 1.14-.71 2.44-1.07 3.9-1.07s2.76.36 3.9 1.07c1.14.71 2.03 1.73 2.68 3.04.65 1.31.98 2.88.98 4.68Zm-2.01 0c0-1.48-.25-2.73-.74-3.75s-1.16-1.79-2-2.32c-.84-.52-1.78-.79-2.81-.79s-1.97.26-2.81.79c-.84.52-1.5 1.3-2 2.32-.49 1.02-.74 2.27-.74 3.75s.25 2.73.74 3.75 1.16 1.79 2 2.32c.84.52 1.78.79 2.81.79s1.97-.26 2.81-.79c.84-.52 1.5-1.3 2-2.32.5-1.02.74-2.27.74-3.75ZM136.904 21.854V4.734h5.78c1.34 0 2.44.23 3.29.68.85.45 1.49 1.08 1.91 1.87.41.79.62 1.69.62 2.7 0 1.01-.21 1.9-.62 2.68-.41.78-1.04 1.39-1.9 1.83-.85.44-1.94.66-3.27.66h-4.68v-1.87h4.61c.91 0 1.65-.13 2.21-.4s.97-.65 1.22-1.14c.25-.49.38-1.08.38-1.77s-.13-1.28-.38-1.8c-.26-.51-.67-.91-1.23-1.19-.56-.28-1.31-.42-2.23-.42h-3.64v15.28h-2.07v.01Zm8.06-7.69 4.21 7.69h-2.41l-4.15-7.69H144.964ZM151.944 21.854V4.734h10.33v1.84h-8.26v5.79h7.72v1.84h-7.72v5.82h8.39v1.84h-10.47l.01-.01ZM171.304 21.854h-5.28V4.734h5.52c1.66 0 3.08.34 4.26 1.02 1.18.68 2.09 1.66 2.72 2.93.63 1.27.94 2.8.94 4.57 0 1.77-.32 3.32-.95 4.6a6.747 6.747 0 0 1-2.78 2.96c-1.22.69-2.69 1.03-4.43 1.03v.01Zm-3.21-1.84h3.08c1.42 0 2.59-.27 3.52-.82.93-.55 1.62-1.32 2.08-2.33.46-1.01.69-2.21.69-3.6 0-1.39-.23-2.57-.68-3.57-.45-1-1.12-1.77-2.02-2.31-.9-.54-2.01-.81-3.35-.81h-3.31v13.44h-.01ZM115.364 38.324c-.18-.56-.42-1.07-.72-1.52-.3-.45-.65-.83-1.06-1.15a4.5 4.5 0 0 0-1.39-.73c-.52-.17-1.09-.25-1.71-.25-1.01 0-1.94.26-2.77.79-.83.52-1.49 1.3-1.98 2.32-.49 1.02-.74 2.27-.74 3.75s.25 2.73.74 3.75 1.17 1.79 2.01 2.32c.85.52 1.8.79 2.86.79.98 0 1.85-.21 2.6-.63.75-.42 1.33-1.02 1.75-1.79.42-.77.63-1.68.63-2.73l.64.13h-5.15v-1.84h6.52v1.84c0 1.41-.3 2.64-.9 3.68a6.248 6.248 0 0 1-2.47 2.42c-1.05.57-2.26.86-3.62.86-1.52 0-2.85-.36-3.99-1.07-1.14-.71-2.04-1.73-2.67-3.04-.64-1.32-.96-2.88-.96-4.68 0-1.35.18-2.57.55-3.66.36-1.08.88-2.01 1.55-2.77.67-.76 1.46-1.35 2.37-1.75.91-.41 1.92-.61 3.02-.61.9 0 1.75.13 2.53.41.78.28 1.48.65 2.1 1.15.62.49 1.13 1.08 1.54 1.76.41.68.7 1.44.85 2.27h-2.14l.01-.02ZM121.154 50.094v-17.12h2.07v7.62h9.13v-7.62h2.07v17.12h-2.07v-7.66h-9.13v7.66h-2.07ZM153.014 41.534c0 1.81-.33 3.37-.98 4.68-.65 1.31-1.55 2.33-2.68 3.04-1.14.71-2.44 1.07-3.9 1.07s-2.76-.36-3.9-1.07c-1.14-.71-2.03-1.73-2.68-3.04-.65-1.32-.98-2.88-.98-4.68 0-1.8.33-3.37.98-4.68.65-1.32 1.55-2.33 2.68-3.04 1.14-.71 2.44-1.07 3.9-1.07s2.76.36 3.9 1.07c1.14.71 2.03 1.73 2.68 3.04.65 1.31.98 2.88.98 4.68Zm-2.01 0c0-1.48-.25-2.73-.74-3.75s-1.16-1.79-2-2.32c-.84-.52-1.78-.79-2.81-.79s-1.97.26-2.81.79c-.84.52-1.5 1.3-2 2.32-.49 1.02-.74 2.27-.74 3.75s.25 2.73.74 3.75 1.16 1.79 2 2.32c.84.52 1.78.79 2.81.79s1.97-.26 2.81-.79c.84-.52 1.5-1.3 2-2.32.5-1.02.74-2.27.74-3.75ZM165.854 37.254c-.1-.85-.51-1.5-1.22-1.97s-1.59-.7-2.62-.7c-.76 0-1.42.12-1.99.37-.57.25-1.01.58-1.32 1.01-.32.43-.47.92-.47 1.46 0 .46.11.85.33 1.17.22.33.5.6.85.81.35.21.71.39 1.09.53.38.14.73.25 1.04.33l1.74.47c.45.12.94.28 1.49.48.55.21 1.08.49 1.58.84s.92.81 1.25 1.36c.33.55.49 1.23.49 2.03 0 .92-.24 1.76-.72 2.51-.48.75-1.19 1.34-2.11 1.78-.92.44-2.04.66-3.36.66-1.23 0-2.29-.2-3.18-.59-.89-.4-1.6-.95-2.11-1.65-.51-.71-.8-1.53-.87-2.47h2.14c.06.65.27 1.18.66 1.6.39.42.87.73 1.45.94.59.2 1.22.31 1.9.31.79 0 1.5-.13 2.13-.39.63-.26 1.13-.62 1.5-1.09.37-.46.55-1.01.55-1.63 0-.57-.16-1.03-.48-1.39-.32-.36-.74-.65-1.25-.87-.52-.22-1.08-.42-1.68-.58l-2.11-.6c-1.34-.38-2.4-.93-3.18-1.65-.78-.71-1.17-1.65-1.17-2.8 0-.96.26-1.8.78-2.51.52-.72 1.22-1.27 2.11-1.67.88-.4 1.87-.6 2.96-.6 1.09 0 2.08.2 2.94.59.86.39 1.54.93 2.04 1.61s.77 1.45.8 2.32h-2.01l.03-.02ZM170.574 34.814v-1.84h12.84v1.84h-5.38v15.28h-2.07v-15.28h-5.39ZM195.984 37.254c-.1-.85-.51-1.5-1.22-1.97s-1.59-.7-2.62-.7c-.76 0-1.42.12-1.99.37-.57.25-1.01.58-1.32 1.01-.32.43-.47.92-.47 1.46 0 .46.11.85.33 1.17.22.33.5.6.85.81.35.21.71.39 1.09.53.38.14.73.25 1.04.33l1.74.47c.45.12.94.28 1.49.48.55.21 1.08.49 1.58.84s.92.81 1.25 1.36c.33.55.49 1.23.49 2.03 0 .92-.24 1.76-.72 2.51-.48.75-1.18 1.34-2.11 1.78-.92.44-2.04.66-3.36.66-1.23 0-2.29-.2-3.18-.59-.89-.4-1.6-.95-2.11-1.65-.51-.71-.8-1.53-.87-2.47h2.14c.06.65.27 1.18.66 1.6.39.42.87.73 1.45.94.59.2 1.22.31 1.9.31.79 0 1.5-.13 2.13-.39.63-.26 1.13-.62 1.5-1.09.37-.46.55-1.01.55-1.63 0-.57-.16-1.03-.48-1.39-.32-.36-.74-.65-1.25-.87-.52-.22-1.08-.42-1.68-.58l-2.11-.6c-1.34-.38-2.4-.93-3.18-1.65-.78-.71-1.17-1.65-1.17-2.8 0-.96.26-1.8.78-2.51.52-.72 1.22-1.27 2.11-1.67.88-.4 1.87-.6 2.96-.6 1.09 0 2.08.2 2.94.59.86.39 1.54.93 2.04 1.61s.77 1.45.8 2.32h-2.01l.03-.02ZM108.944 78.344h-5.28v-17.12h5.52c1.66 0 3.08.34 4.26 1.02 1.18.68 2.09 1.66 2.72 2.93.63 1.27.94 2.8.94 4.57 0 1.77-.32 3.32-.95 4.6a6.747 6.747 0 0 1-2.78 2.96c-1.22.69-2.69 1.03-4.43 1.03v.01Zm-3.21-1.84h3.08c1.42 0 2.59-.27 3.52-.82.93-.55 1.62-1.32 2.08-2.33.46-1.01.69-2.21.69-3.6 0-1.39-.23-2.57-.68-3.57-.45-1-1.12-1.77-2.02-2.31-.9-.54-2.01-.81-3.35-.81h-3.31v13.44h-.01ZM120.584 78.344v-17.12h10.33v1.84h-8.26v5.79h7.72v1.84h-7.72v5.82h8.39v1.84h-10.47l.01-.01ZM135.364 61.224l5.08 14.41h.2l5.08-14.41h2.17l-6.29 17.12h-2.14l-6.29-17.12h2.19ZM150.574 78.344v-17.12h10.33v1.84h-8.26v5.79h7.72v1.84h-7.72v5.82h8.39v1.84h-10.47l.01-.01ZM164.654 78.344v-17.12h2.07v15.28h7.96v1.84h-10.03ZM191.674 69.784c0 1.81-.33 3.37-.98 4.68-.65 1.31-1.55 2.33-2.68 3.04-1.14.71-2.44 1.07-3.9 1.07s-2.76-.36-3.9-1.07c-1.14-.71-2.03-1.73-2.68-3.04-.65-1.32-.98-2.88-.98-4.68 0-1.8.33-3.37.98-4.68.65-1.32 1.55-2.33 2.68-3.04 1.14-.71 2.44-1.07 3.9-1.07s2.76.36 3.9 1.07c1.14.71 2.03 1.73 2.68 3.04.65 1.31.98 2.88.98 4.68Zm-2.01 0c0-1.48-.25-2.73-.74-3.75s-1.16-1.79-2-2.32c-.84-.52-1.78-.79-2.81-.79s-1.97.26-2.81.79c-.84.52-1.5 1.3-2 2.32-.49 1.02-.74 2.27-.74 3.75s.25 2.73.74 3.75 1.16 1.79 2 2.32c.84.52 1.78.79 2.81.79s1.97-.26 2.81-.79c.84-.52 1.5-1.3 2-2.32.5-1.02.74-2.27.74-3.75ZM195.154 78.344v-17.12h5.78c1.34 0 2.44.24 3.3.72.86.48 1.49 1.13 1.9 1.95.41.82.62 1.73.62 2.74 0 1.01-.21 1.93-.61 2.75-.41.83-1.04 1.48-1.89 1.97-.85.49-1.95.73-3.28.73h-4.15v-1.84h4.08c.92 0 1.66-.16 2.21-.48.56-.32.96-.75 1.22-1.29.25-.54.38-1.16.38-1.84 0-.68-.13-1.3-.38-1.84s-.66-.97-1.22-1.27c-.56-.31-1.31-.46-2.24-.46h-3.64v15.28H195.154ZM212.174 61.224v17.12h-2.07v-17.12h2.07ZM229.894 61.224v17.12h-2.01l-9.33-13.44h-.17v13.44h-2.07v-17.12h2.01l9.36 13.48h.17v-13.48h2.04ZM245.744 66.574c-.18-.56-.42-1.07-.72-1.52-.3-.45-.65-.83-1.06-1.15a4.5 4.5 0 0 0-1.39-.73c-.52-.17-1.09-.25-1.71-.25-1.01 0-1.94.26-2.77.79-.83.52-1.49 1.3-1.98 2.32-.49 1.02-.74 2.27-.74 3.75s.25 2.73.74 3.75 1.17 1.79 2.01 2.32c.85.52 1.8.79 2.86.79.98 0 1.85-.21 2.6-.63.75-.42 1.33-1.02 1.75-1.79.42-.77.63-1.68.63-2.73l.64.13h-5.15v-1.84h6.52v1.84c0 1.41-.3 2.64-.9 3.68a6.248 6.248 0 0 1-2.47 2.42c-1.05.57-2.26.86-3.62.86-1.52 0-2.85-.36-3.99-1.07-1.14-.71-2.04-1.73-2.67-3.04-.64-1.32-.96-2.88-.96-4.68 0-1.35.18-2.57.55-3.66.36-1.08.88-2.01 1.55-2.77.67-.76 1.46-1.35 2.37-1.75.91-.41 1.92-.61 3.02-.61.9 0 1.75.13 2.53.41.78.28 1.48.65 2.1 1.15.62.49 1.13 1.08 1.54 1.76.41.68.7 1.44.85 2.27h-2.14l.01-.02Z"/><path fill="#1D1D1B" d="M80.064 37.634c.05-2.59-.2-5.66-.64-8.02-1.79-9.63-7.2-17.95-15.21-23.42-7.86-5.37-17.33-7.34-26.64-5.55-17.08 3.28-29.6 19.17-29.13 36.99v.03c.02 1.37 1.33 3.12 11.04 4.53 6.62.97 15.42 1.5 24.77 1.5s18.14-.53 24.77-1.5c9.74-1.42 11.03-3.17 11.04-4.54v-.02Zm-12.1 2.73c-6.44.88-14.86 1.37-23.71 1.37-8.85 0-17.27-.49-23.71-1.37-8.82-1.21-10.02-2.61-10.14-2.77-.45-16.87 11.38-31.92 27.53-35.01 8.79-1.69 17.73.18 25.16 5.25 7.58 5.17 12.69 13.04 14.39 22.16.42 2.23.65 5.15.6 7.61-.12.17-1.32 1.57-10.14 2.77l.02-.01Z"/><path fill="#1D1D1B" d="M44.684 36.244c-.54 0-.98-.44-.98-.98 0-1.4.76-2.14 1.31-2.67.5-.48.72-.72.72-1.26s-.22-.78-.72-1.26c-.55-.54-1.31-1.27-1.31-2.67s.76-2.13 1.31-2.67c.5-.48.72-.72.72-1.26s-.22-.78-.72-1.26c-.55-.54-1.31-1.27-1.31-2.67s.76-2.13 1.31-2.67c.5-.48.72-.72.72-1.26s.44-.98.98-.98.98.44.98.98c0 1.4-.76 2.13-1.31 2.67-.5.48-.72.72-.72 1.26s.22.78.72 1.26c.55.54 1.31 1.27 1.31 2.67s-.76 2.13-1.31 2.67c-.5.48-.72.72-.72 1.26s.22.78.72 1.26c.55.54 1.31 1.27 1.31 2.67s-.76 2.13-1.31 2.67c-.5.48-.72.72-.72 1.26s-.44.98-.98.98ZM64.694 36.244c-.54 0-.98-.44-.98-.98 0-1.4.76-2.14 1.31-2.67.5-.48.72-.72.72-1.26s-.22-.78-.72-1.26c-.55-.54-1.31-1.27-1.31-2.67s.76-2.13 1.31-2.67c.5-.48.72-.72.72-1.26s-.22-.78-.72-1.26c-.55-.54-1.31-1.27-1.31-2.67s.76-2.13 1.31-2.67c.5-.48.72-.72.72-1.26s.44-.98.98-.98.98.44.98.98c0 1.4-.76 2.13-1.31 2.67-.5.48-.72.72-.72 1.26s.22.78.72 1.26c.55.54 1.31 1.27 1.31 2.67s-.76 2.13-1.31 2.67c-.5.48-.72.72-.72 1.26s.22.78.72 1.26c.55.54 1.31 1.27 1.31 2.67s-.76 2.13-1.31 2.67c-.5.48-.72.72-.72 1.26s-.44.98-.98.98ZM79.424 53.794v-.01c-.01-1.35-1.19-3.32-10.87-4.9-6.5-1.06-15.11-1.65-24.24-1.65-9.13 0-17.81.57-24.33 1.61-9.78 1.56-10.96 3.52-10.97 4.87v.02c0 .23.03.48.14.74.94 4.59 2.73 8.89 5.35 12.77-.38 2.51-1.45 4.43-3.19 5.71-3.81 2.79-9.66 1.72-9.72 1.71a.994.994 0 0 0-1.05.49.97.97 0 0 0 .15 1.15c8.54 9.06 19.42 7.57 26.19 2.29a35.852 35.852 0 0 0 17.37 4.49c2.21 0 4.43-.21 6.63-.62 14.47-2.73 25.57-13.68 28.42-27.96.09-.25.13-.49.13-.71v-.02l-.01.02Zm-28.91 26.75c-7.97 1.51-16.22.09-23.24-3.97-3.31-1.93-4.8-3.72-4.83-3.75a.983.983 0 0 0-1.38-.14c-.42.34-.49.96-.14 1.38.06.07 1.33 1.62 4.13 3.44-4.65 3.29-13.05 5.94-20.93-.65 2.35.01 5.69-.36 8.34-2.3 2.28-1.67 3.64-4.17 4.04-7.42a.97.97 0 0 0-.17-.68c-2.1-3.04-3.65-6.36-4.65-9.89 1.62.73 4.21 1.47 8.3 2.15 6.6 1.1 15.24 1.7 24.34 1.7s17.72-.59 24.24-1.67c4.05-.67 6.61-1.4 8.22-2.13-3.42 12.26-13.44 21.5-26.26 23.92l-.01.01Z"/></svg>