<svg xmlns="http://www.w3.org/2000/svg" fill="none" viewBox="0 0 256 87"><path fill="#1D1D1B" d="M81.904 56.225c-.02-1.4-1.23-3.44-11.27-5.08-6.74-1.1-15.67-1.71-25.13-1.71-9.46 0-18.46.59-25.23 1.67-10.14 1.61-11.36 3.65-11.37 5.05v.02c0 .24.04.5.14.77a36.92 36.92 0 0 0 5.54 13.24c-.39 2.61-1.5 4.59-3.3 5.91-3.95 2.89-10.02 1.79-10.08 1.78-.43-.08-.87.12-1.08.51-.21.39-.15.87.15 1.19 4.33 4.6 9.55 6.94 15.1 6.8 4.22-.11 8.57-1.72 12.05-4.43a37.155 37.155 0 0 0 24.89 4.02c15-2.83 26.5-14.18 29.46-28.98.1-.26.13-.51.13-.74v-.03.01Zm-29.97 27.75a35.06 35.06 0 0 1-24.09-4.12c-3.44-2.01-4.99-3.87-5.01-3.89a1.018 1.018 0 0 0-1.58 1.28c.06.08 1.38 1.68 4.28 3.57-4.82 3.41-13.53 6.16-21.7-.67 2.43.04 5.89-.37 8.65-2.39 2.37-1.73 3.78-4.32 4.18-7.69.03-.25-.03-.5-.17-.7a34.85 34.85 0 0 1-4.82-10.25c1.68.76 4.36 1.53 8.6 2.23 6.84 1.14 15.8 1.76 25.23 1.76s18.37-.61 25.13-1.73c4.2-.69 6.85-1.45 8.52-2.21-3.55 12.71-13.93 22.28-27.22 24.79v.02ZM82.574 39.495c.05-2.68-.2-5.86-.66-8.31-1.86-9.99-7.46-18.61-15.77-24.28-8.15-5.56-17.96-7.61-27.61-5.76-17.71 3.4-30.69 19.88-30.19 38.34v.03c.02 1.42 1.38 3.23 11.44 4.7 6.87 1 15.98 1.55 25.67 1.55 9.69 0 18.81-.55 25.67-1.55 10.09-1.47 11.43-3.28 11.45-4.71v-.01Zm-37.12 4.24c-24.82 0-34.47-3.17-35.08-4.29-.47-17.49 11.8-33.09 28.54-36.3 9.12-1.75 18.38.18 26.08 5.44 7.86 5.36 13.16 13.52 14.92 22.97.43 2.32.67 5.34.63 7.89-.62 1.12-10.27 4.29-35.08 4.29h-.01Z"/><path fill="#1D1D1B" d="M47.654 19.425c.57-.56 1.36-1.32 1.36-2.77 0-.56-.46-1.02-1.02-1.02s-1.02.46-1.02 1.02-.23.81-.74 1.3c-.57.56-1.36 1.32-1.36 2.77s.79 2.21 1.36 2.77c.51.5.74.74.74 1.31 0 .57-.23.81-.74 1.31-.57.56-1.36 1.32-1.36 2.77s.79 2.21 1.36 2.77c.51.5.74.74.74 1.31 0 .57-.23.81-.74 1.31-.57.56-1.36 1.32-1.36 2.77 0 .56.46 1.02 1.02 1.02s1.02-.46 1.02-1.02.23-.81.74-1.31c.57-.56 1.36-1.32 1.36-2.77s-.79-2.21-1.36-2.77c-.51-.5-.74-.74-.74-1.31 0-.57.23-.81.74-1.31.57-.56 1.36-1.32 1.36-2.77s-.79-2.21-1.36-2.77c-.51-.5-.74-.74-.74-1.31 0-.57.23-.81.74-1.31v.01ZM68.394 19.425c.57-.56 1.36-1.32 1.36-2.77 0-.56-.46-1.02-1.02-1.02s-1.02.46-1.02 1.02-.23.81-.74 1.3c-.57.56-1.36 1.32-1.36 2.77s.79 2.21 1.36 2.77c.51.5.74.74.74 1.31 0 .57-.23.81-.74 1.31-.57.56-1.36 1.32-1.36 2.77s.79 2.21 1.36 2.77c.51.5.74.74.74 1.31 0 .57-.23.81-.74 1.31-.57.56-1.36 1.32-1.36 2.77 0 .56.46 1.02 1.02 1.02s1.02-.46 1.02-1.02.23-.81.74-1.31c.57-.56 1.36-1.32 1.36-2.77s-.79-2.21-1.36-2.77c-.51-.5-.74-.74-.74-1.31 0-.57.23-.81.74-1.31.57-.56 1.36-1.32 1.36-2.77s-.79-2.21-1.36-2.77c-.51-.5-.74-.74-.74-1.31 0-.57.23-.81.74-1.31v.01ZM105.894 56.385v-24.1h8.42c1.68 0 3.06.29 4.15.86 1.09.58 1.9 1.35 2.44 2.32.53.97.8 2.04.8 3.22 0 1.04-.18 1.89-.55 2.56-.36.67-.84 1.21-1.44 1.6-.59.39-1.23.68-1.92.87v.24c.74.05 1.48.31 2.22.78.74.47 1.37 1.15 1.87 2.02.5.88.75 1.95.75 3.22 0 1.27-.27 2.29-.82 3.26-.55.96-1.42 1.73-2.6 2.29-1.18.56-2.73.85-4.62.85h-8.71l.01.01Zm2.92-13.51h5.41c.88 0 1.67-.17 2.38-.52a4.14 4.14 0 0 0 1.69-1.46c.42-.63.63-1.37.63-2.21 0-1.06-.37-1.96-1.11-2.7-.74-.74-1.91-1.11-3.51-1.11h-5.51v8h.02Zm0 10.92h5.79c1.91 0 3.26-.37 4.06-1.11.8-.74 1.21-1.64 1.21-2.7 0-.82-.21-1.57-.62-2.27-.42-.69-1.01-1.25-1.78-1.67-.77-.42-1.68-.63-2.73-.63h-5.93v8.38ZM143.924 39.815a9 9 0 0 0-1.02-2.14c-.42-.63-.92-1.17-1.49-1.62-.57-.45-1.23-.79-1.96-1.02-.73-.24-1.53-.35-2.4-.35-1.43 0-2.73.37-3.89 1.11-1.17.74-2.1 1.82-2.79 3.26-.69 1.44-1.04 3.2-1.04 5.28s.35 3.85 1.05 5.28c.7 1.44 1.64 2.52 2.84 3.26 1.19.74 2.53 1.11 4.02 1.11 1.38 0 2.6-.3 3.65-.89a6.244 6.244 0 0 0 2.47-2.52c.59-1.09.89-2.37.89-3.84l.89.19h-7.25v-2.59h9.18v2.59c0 1.98-.42 3.71-1.26 5.18-.84 1.47-2 2.6-3.48 3.41s-3.18 1.21-5.09 1.21c-2.13 0-4.01-.5-5.62-1.51-1.61-1-2.87-2.43-3.77-4.28-.9-1.85-1.35-4.05-1.35-6.59 0-1.91.26-3.62.77-5.15.51-1.53 1.24-2.83 2.18-3.9.94-1.07 2.06-1.9 3.34-2.47 1.29-.57 2.7-.86 4.25-.86 1.27 0 2.46.19 3.56.57 1.1.38 2.09.92 2.95 1.61.87.69 1.59 1.52 2.17 2.48.58.96.98 2.03 1.2 3.19h-3.01.01ZM159.504 56.385h-7.44v-24.1h7.77c2.34 0 4.34.48 6 1.44 1.66.96 2.94 2.34 3.82 4.13.89 1.79 1.33 3.94 1.33 6.43 0 2.49-.45 4.67-1.34 6.48-.89 1.81-2.2 3.2-3.91 4.17-1.71.97-3.79 1.45-6.24 1.45h.01Zm-4.52-2.59h4.33c1.99 0 3.64-.38 4.95-1.15 1.31-.77 2.29-1.86 2.93-3.28.64-1.42.96-3.11.96-5.07 0-1.96-.32-3.62-.95-5.03-.64-1.41-1.58-2.49-2.85-3.25-1.26-.76-2.84-1.14-4.72-1.14h-4.66v18.92h.01ZM185.194 56.385v-24.1h2.92v21.51h11.2v2.59h-14.12ZM208.774 56.805c-1.15 0-2.18-.22-3.12-.65a5.39 5.39 0 0 1-2.22-1.89c-.55-.83-.82-1.83-.82-3.01 0-1.04.2-1.88.61-2.52.41-.65.95-1.15 1.64-1.52.68-.37 1.44-.64 2.26-.83.83-.18 1.66-.33 2.5-.44 1.1-.14 1.99-.25 2.68-.32.69-.07 1.19-.2 1.51-.38.32-.18.48-.49.48-.94v-.09c0-1.16-.32-2.06-.95-2.71-.63-.65-1.59-.96-2.87-.96s-2.36.29-3.12.87c-.76.58-1.28 1.2-1.59 1.86l-2.64-.94c.47-1.1 1.1-1.96 1.89-2.57.79-.61 1.65-1.05 2.59-1.29.94-.25 1.86-.37 2.77-.37.58 0 1.25.07 2.01.21.76.14 1.49.42 2.2.84.71.42 1.3 1.06 1.77 1.92.47.85.71 2 .71 3.44v11.91h-2.78v-2.45h-.14c-.19.39-.5.81-.94 1.26-.44.45-1.02.83-1.75 1.14-.73.31-1.62.47-2.67.47l-.01-.04Zm.42-2.49c1.1 0 2.03-.22 2.78-.65.76-.43 1.33-.99 1.72-1.67.39-.68.58-1.4.58-2.15v-2.54c-.12.14-.37.27-.77.38-.4.11-.85.21-1.37.29-.52.08-1.01.15-1.49.21s-.87.11-1.17.15c-.72.09-1.39.25-2.02.45-.62.21-1.13.52-1.51.93-.38.41-.57.97-.57 1.68 0 .96.36 1.69 1.08 2.18.72.49 1.63.74 2.74.74ZM222.524 56.385v-24.1h2.78v8.9h.24c.2-.31.49-.72.85-1.21s.89-.93 1.58-1.32c.69-.39 1.62-.58 2.79-.58 1.52 0 2.86.38 4.02 1.14 1.16.76 2.07 1.84 2.72 3.24.65 1.4.98 3.04.98 4.94 0 1.9-.33 3.57-.98 4.97-.65 1.4-1.55 2.48-2.71 3.25-1.15.76-2.48 1.15-3.99 1.15-1.16 0-2.09-.19-2.79-.58-.7-.39-1.24-.83-1.61-1.33-.38-.5-.67-.91-.87-1.24h-.33v2.78h-2.68v-.01Zm2.73-9.04c0 1.36.2 2.57.6 3.61.4 1.04.98 1.85 1.75 2.44.77.58 1.71.88 2.82.88 1.11 0 2.13-.31 2.91-.92.78-.62 1.37-1.45 1.76-2.49.4-1.05.59-2.21.59-3.5s-.19-2.42-.58-3.44c-.39-1.02-.97-1.84-1.75-2.44-.78-.6-1.76-.9-2.94-.9s-2.08.28-2.85.85-1.35 1.36-1.74 2.38c-.39 1.02-.59 2.2-.59 3.55l.02-.02ZM255.514 42.355l-2.49.71c-.16-.42-.39-.82-.69-1.22-.3-.4-.71-.72-1.23-.98s-1.18-.39-1.99-.39c-1.11 0-2.03.25-2.76.76s-1.1 1.15-1.1 1.92c0 .69.25 1.24.75 1.64.5.4 1.29.73 2.35 1l2.68.66c1.62.39 2.82.99 3.61 1.79s1.19 1.84 1.19 3.1c0 1.04-.3 1.96-.89 2.78-.59.82-1.42 1.46-2.48 1.93s-2.29.71-3.69.71c-1.84 0-3.37-.4-4.58-1.2-1.21-.8-1.97-1.97-2.29-3.51l2.64-.66c.25.97.73 1.7 1.43 2.19s1.62.73 2.76.73c1.29 0 2.32-.28 3.09-.83.76-.55 1.15-1.22 1.15-1.99 0-.63-.22-1.15-.66-1.58-.44-.43-1.11-.75-2.02-.96l-3.01-.71c-1.66-.39-2.87-1-3.64-1.83-.77-.83-1.16-1.86-1.16-3.11 0-1.02.29-1.92.86-2.71.58-.78 1.37-1.4 2.36-1.85 1-.45 2.14-.67 3.41-.67 1.79 0 3.19.39 4.22 1.18 1.02.78 1.75 1.82 2.18 3.11v-.01Z"/></svg>