<svg xmlns="http://www.w3.org/2000/svg" fill="none" viewBox="0 0 83 87"><path fill="#FCF9F5" d="M45.904 37.545c-.56 0-1.02-.46-1.02-1.02 0-1.45.79-2.21 1.36-2.77.51-.5.74-.74.74-1.31 0-.57-.23-.81-.74-1.31-.57-.56-1.36-1.32-1.36-2.77s.79-2.21 1.36-2.77c.51-.5.74-.74.74-1.3s-.23-.81-.74-1.31c-.57-.56-1.36-1.32-1.36-2.77s.79-2.21 1.36-2.77c.51-.5.74-.74.74-1.3s.46-1.02 1.02-1.02 1.02.46 1.02 1.02c0 1.45-.79 2.21-1.36 2.77-.51.5-.74.74-.74 1.3s.23.81.74 1.3c.57.56 1.36 1.32 1.36 2.77s-.79 2.21-1.36 2.77c-.51.5-.74.74-.74 1.3s.23.81.74 1.31c.57.56 1.36 1.32 1.36 2.77s-.79 2.21-1.36 2.77c-.51.5-.74.74-.74 1.31 0 .57-.46 1.02-1.02 1.02v.01ZM66.644 37.545c-.56 0-1.02-.46-1.02-1.02 0-1.45.79-2.21 1.36-2.77.51-.5.74-.74.74-1.31 0-.57-.23-.81-.74-1.31-.57-.56-1.36-1.32-1.36-2.77s.79-2.21 1.36-2.77c.51-.5.74-.74.74-1.3s-.23-.81-.74-1.31c-.57-.56-1.36-1.32-1.36-2.77s.79-2.21 1.36-2.77c.51-.5.74-.74.74-1.3s.46-1.02 1.02-1.02 1.02.46 1.02 1.02c0 1.45-.79 2.21-1.36 2.77-.51.5-.74.74-.74 1.3s.23.81.74 1.3c.57.56 1.36 1.32 1.36 2.77s-.79 2.21-1.36 2.77c-.51.5-.74.74-.74 1.3s.23.81.74 1.31c.57.56 1.36 1.32 1.36 2.77s-.79 2.21-1.36 2.77c-.51.5-.74.74-.74 1.31 0 .57-.46 1.02-1.02 1.02v.01Z"/><path fill="#FCF9F5" d="M82.524 38.985c.05-2.68-.2-5.86-.66-8.3-1.86-9.98-7.46-18.6-15.76-24.27-8.15-5.56-17.95-7.6-27.6-5.75-17.7 3.39-30.67 19.87-30.18 38.33v.03c.02 1.42 1.37 3.23 11.44 4.69 6.86 1 15.98 1.55 25.66 1.55s18.8-.55 25.66-1.55c10.09-1.47 11.43-3.28 11.44-4.7v-.03Zm-12.54 2.83c-6.67.91-15.39 1.42-24.57 1.42s-17.9-.5-24.57-1.42c-9.14-1.25-10.38-2.7-10.5-2.88-.47-17.48 11.79-33.07 28.53-36.28 9.11-1.75 18.37.18 26.07 5.44 7.86 5.36 13.15 13.52 14.91 22.96.43 2.32.67 5.33.63 7.88-.12.18-1.37 1.62-10.5 2.87v.01ZM81.854 55.725v-.01c-.02-1.4-1.23-3.44-11.26-5.08-6.74-1.1-15.66-1.71-25.12-1.71s-18.45.59-25.21 1.67c-10.13 1.61-11.35 3.65-11.37 5.05v.02c0 .24.04.5.14.77.98 4.76 2.83 9.21 5.54 13.24-.39 2.6-1.5 4.59-3.3 5.91-3.95 2.89-10.01 1.79-10.07 1.78-.43-.08-.87.12-1.08.51-.21.39-.15.87.15 1.19 8.85 9.39 20.12 7.84 27.13 2.37a37.146 37.146 0 0 0 24.87 4.02c14.99-2.83 26.49-14.17 29.45-28.97.1-.26.13-.51.13-.74v-.02Zm-29.95 27.72c-8.25 1.56-16.81.1-24.08-4.12-3.43-2-4.98-3.85-5-3.88a1.016 1.016 0 1 0-1.58 1.28c.06.08 1.38 1.68 4.28 3.57-4.81 3.4-13.52 6.15-21.69-.67 2.43.01 5.89-.37 8.65-2.39 2.37-1.73 3.77-4.32 4.18-7.69.03-.25-.03-.5-.17-.7a34.73 34.73 0 0 1-4.82-10.25c1.68.76 4.36 1.53 8.6 2.23 6.84 1.14 15.79 1.76 25.22 1.76s18.36-.61 25.12-1.73c4.2-.69 6.85-1.45 8.51-2.21-3.55 12.7-13.93 22.27-27.21 24.78l-.01.02Zm-6.28-22.62c-18.79 0-34.01-2.34-34.01-5.24 0-2.9 15.23-5.24 34.01-5.24 18.78 0 34.01 2.34 34.01 5.24 0 2.9-15.23 5.24-34.01 5.24Z"/></svg>