<svg xmlns="http://www.w3.org/2000/svg" fill="none" viewBox="0 0 83 87"><path fill="#1D1D1B" d="M81.904 55.743c-.02-1.4-1.23-3.44-11.27-5.08-6.74-1.1-15.67-1.71-25.13-1.71-9.46 0-18.46.59-25.23 1.67-10.14 1.61-11.36 3.65-11.37 5.05v.02c0 .24.04.5.14.77a36.92 36.92 0 0 0 5.54 13.24c-.39 2.61-1.5 4.59-3.3 5.91-3.95 2.89-10.02 1.79-10.08 1.78-.43-.08-.87.12-1.08.51-.21.39-.15.87.15 1.19 4.33 4.6 9.55 6.94 15.1 6.8 4.22-.11 8.57-1.72 12.05-4.43a37.155 37.155 0 0 0 24.89 4.02c15-2.83 26.5-14.18 29.46-28.98.1-.26.13-.51.13-.74v-.03.01Zm-29.97 27.75c-8.26 1.56-16.81.1-24.09-4.12-3.44-2.01-4.99-3.87-5.01-3.89a1.018 1.018 0 0 0-1.58 1.28c.06.08 1.38 1.68 4.28 3.57-4.82 3.41-13.53 6.16-21.7-.67 2.43.04 5.89-.37 8.65-2.39 2.37-1.73 3.78-4.32 4.18-7.69.03-.25-.03-.5-.17-.7a34.85 34.85 0 0 1-4.82-10.25c1.68.76 4.36 1.53 8.6 2.23 6.84 1.14 15.8 1.76 25.23 1.76s18.37-.61 25.13-1.73c4.2-.69 6.85-1.45 8.52-2.21-3.55 12.71-13.93 22.28-27.22 24.79v.02ZM82.574 39.014c.05-2.68-.2-5.86-.66-8.31-1.86-9.99-7.46-18.61-15.77-24.28-8.15-5.56-17.96-7.61-27.61-5.76-17.71 3.4-30.69 19.88-30.19 38.34v.03c.02 1.42 1.38 3.23 11.44 4.7 6.87 1 15.98 1.55 25.67 1.55 9.69 0 18.81-.55 25.67-1.55 10.09-1.47 11.43-3.28 11.45-4.71v-.01Zm-37.12 4.24c-24.82 0-34.47-3.17-35.08-4.29-.47-17.49 11.8-33.09 28.54-36.3 9.12-1.75 18.38.18 26.08 5.44 7.86 5.36 13.16 13.52 14.92 22.97.43 2.32.67 5.34.63 7.89-.62 1.12-10.27 4.29-35.08 4.29h-.01Z"/><path fill="#1D1D1B" d="M47.654 18.944c.57-.56 1.36-1.32 1.36-2.77 0-.56-.46-1.02-1.02-1.02s-1.02.46-1.02 1.02-.23.81-.74 1.3c-.57.56-1.36 1.32-1.36 2.77s.79 2.21 1.36 2.77c.51.5.74.74.74 1.31 0 .57-.23.81-.74 1.31-.57.56-1.36 1.32-1.36 2.77s.79 2.21 1.36 2.77c.51.5.74.74.74 1.31 0 .57-.23.81-.74 1.31-.57.56-1.36 1.32-1.36 2.77 0 .56.46 1.02 1.02 1.02s1.02-.46 1.02-1.02.23-.81.74-1.31c.57-.56 1.36-1.32 1.36-2.77s-.79-2.21-1.36-2.77c-.51-.5-.74-.74-.74-1.31 0-.57.23-.81.74-1.31.57-.56 1.36-1.32 1.36-2.77s-.79-2.21-1.36-2.77c-.51-.5-.74-.74-.74-1.31 0-.57.23-.81.74-1.31v.01ZM68.394 18.944c.57-.56 1.36-1.32 1.36-2.77 0-.56-.46-1.02-1.02-1.02s-1.02.46-1.02 1.02-.23.81-.74 1.3c-.57.56-1.36 1.32-1.36 2.77s.79 2.21 1.36 2.77c.51.5.74.74.74 1.31 0 .57-.23.81-.74 1.31-.57.56-1.36 1.32-1.36 2.77s.79 2.21 1.36 2.77c.51.5.74.74.74 1.31 0 .57-.23.81-.74 1.31-.57.56-1.36 1.32-1.36 2.77 0 .56.46 1.02 1.02 1.02s1.02-.46 1.02-1.02.23-.81.74-1.31c.57-.56 1.36-1.32 1.36-2.77s-.79-2.21-1.36-2.77c-.51-.5-.74-.74-.74-1.31 0-.57.23-.81.74-1.31.57-.56 1.36-1.32 1.36-2.77s-.79-2.21-1.36-2.77c-.51-.5-.74-.74-.74-1.31 0-.57.23-.81.74-1.31v.01Z"/></svg>