<svg xmlns="http://www.w3.org/2000/svg" fill="none" viewBox="0 0 198 199"><path fill="#FCF9F5" d="M101.174 91.91c-.6 0-1.08-.48-1.08-1.08 0-1.54.83-2.35 1.44-2.94.55-.53.79-.79.79-1.39 0-.6-.24-.86-.79-1.39-.61-.59-1.44-1.4-1.44-2.94s.83-2.35 1.44-2.94c.55-.53.79-.79.79-1.38 0-.59-.24-.86-.79-1.38-.61-.59-1.44-1.4-1.44-2.94s.83-2.35 1.44-2.94c.55-.53.79-.79.79-1.38 0-.59.48-1.08 1.08-1.08.6 0 1.08.48 1.08 1.08 0 1.54-.83 2.35-1.44 2.94-.55.53-.79.79-.79 1.38 0 .59.24.86.79 1.38.61.59 1.44 1.4 1.44 2.94s-.83 2.35-1.44 2.94c-.55.53-.79.79-.79 1.38 0 .59.24.86.79 1.39.61.59 1.44 1.4 1.44 2.94s-.83 2.35-1.44 2.94c-.55.53-.79.79-.79 1.39 0 .6-.48 1.08-1.08 1.08ZM123.174 91.91c-.6 0-1.08-.48-1.08-1.08 0-1.54.83-2.35 1.44-2.94.55-.53.79-.79.79-1.39 0-.6-.24-.86-.79-1.39-.61-.59-1.44-1.4-1.44-2.94s.83-2.35 1.44-2.94c.55-.53.79-.79.79-1.38 0-.59-.24-.86-.79-1.38-.61-.59-1.44-1.4-1.44-2.94s.83-2.35 1.44-2.94c.55-.53.79-.79.79-1.38 0-.59.48-1.08 1.08-1.08.6 0 1.08.48 1.08 1.08 0 1.54-.83 2.35-1.44 2.94-.55.53-.79.79-.79 1.38 0 .59.24.86.79 1.38.61.59 1.44 1.4 1.44 2.94s-.83 2.35-1.44 2.94c-.55.53-.79.79-.79 1.38 0 .59.24.86.79 1.39.61.59 1.44 1.4 1.44 2.94s-.83 2.35-1.44 2.94c-.55.53-.79.79-.79 1.39 0 .6-.48 1.08-1.08 1.08Z"/><path fill="#FCF9F5" d="M140.024 93.44c.05-2.84-.22-6.22-.7-8.81-1.97-10.59-7.91-19.74-16.73-25.75-8.65-5.9-19.05-8.07-29.29-6.1-18.78 3.6-32.54 21.08-32.02 40.67v.03c.02 1.51 1.46 3.42 12.14 4.98 7.28 1.06 16.95 1.65 27.23 1.65 10.28 0 19.95-.58 27.23-1.65 10.7-1.56 12.12-3.48 12.14-4.99v-.03Zm-13.3 3c-7.08.97-16.33 1.5-26.06 1.5s-18.99-.53-26.06-1.5c-9.7-1.33-11.02-2.87-11.14-3.05-.5-18.54 12.51-35.09 30.27-38.49 9.67-1.85 19.49.19 27.66 5.77 8.34 5.69 13.96 14.34 15.82 24.36.46 2.46.71 5.66.66 8.36-.13.19-1.45 1.72-11.14 3.05h-.01ZM139.314 111.2v-.01c-.02-1.49-1.31-3.65-11.95-5.39-7.15-1.17-16.62-1.81-26.65-1.81-10.03 0-19.58.63-26.75 1.77-10.75 1.71-12.05 3.87-12.06 5.36v.02c0 .25.04.53.15.82 1.04 5.05 3 9.77 5.88 14.04-.41 2.76-1.59 4.87-3.5 6.27-4.19 3.07-10.62 1.9-10.69 1.88a1.08 1.08 0 0 0-.99 1.8c9.39 9.96 21.35 8.32 28.79 2.52a39.339 39.339 0 0 0 19.1 4.94c2.43 0 4.88-.23 7.29-.68 15.91-3 28.11-15.04 31.24-30.74.1-.28.14-.54.14-.79v-.02.02Zm-31.78 29.41c-8.76 1.66-17.83.1-25.55-4.37-3.64-2.12-5.28-4.09-5.31-4.12a1.09 1.09 0 0 0-1.52-.16 1.09 1.09 0 0 0-.16 1.52c.07.08 1.47 1.78 4.54 3.79-5.11 3.61-14.35 6.53-23.01-.71 2.58.01 6.25-.4 9.17-2.53 2.51-1.83 4-4.58 4.44-8.16.03-.26-.03-.53-.18-.74-2.3-3.35-4.01-6.99-5.11-10.87 1.79.81 4.62 1.62 9.12 2.37 7.25 1.21 16.76 1.87 26.76 1.87s19.48-.65 26.65-1.83c4.45-.73 7.26-1.54 9.03-2.34-3.76 13.48-14.78 23.63-28.87 26.3v-.02Zm-6.66-24c-19.93 0-36.09-2.49-36.09-5.56 0-3.07 16.16-5.56 36.09-5.56 19.93 0 36.09 2.49 36.09 5.56 0 3.07-16.16 5.56-36.09 5.56ZM26.304 77.24 4.664 68.2l3.16-7.56c.63-1.51 1.41-2.64 2.33-3.41.93-.76 1.92-1.2 2.99-1.32 1.07-.12 2.13.05 3.19.49.93.39 1.63.87 2.1 1.45.47.58.77 1.21.9 1.89.13.68.15 1.36.06 2.05l.21.09c.32-.64.83-1.21 1.53-1.7.7-.49 1.54-.8 2.52-.92s2.04.06 3.18.53c1.08.45 1.96 1.11 2.62 1.96.66.86 1.02 1.92 1.08 3.2.06 1.28-.26 2.77-.97 4.47l-3.27 7.82h.01Zm-11.03-7.69 2.03-4.86c.33-.79.47-1.57.43-2.33a4.1 4.1 0 0 0-.67-2.07c-.41-.61-.99-1.08-1.75-1.39-.95-.4-1.9-.4-2.84-.02s-1.71 1.29-2.31 2.73l-2.07 4.94 7.18 3Zm9.8 4.1 2.17-5.2c.71-1.71.89-3.07.53-4.07-.36-1-1.02-1.7-1.97-2.1-.73-.31-1.49-.4-2.27-.29-.78.11-1.5.44-2.17.97-.67.53-1.2 1.27-1.59 2.21l-2.22 5.32 7.52 3.14v.02ZM37.404 36.6c1.93 1.55 3.31 3.24 4.16 5.06.84 1.82 1.16 3.65.94 5.48-.21 1.83-.95 3.52-2.2 5.08-1.25 1.56-2.75 2.64-4.49 3.24-1.74.6-3.59.69-5.55.25-1.96-.43-3.91-1.42-5.84-2.97-1.93-1.55-3.31-3.24-4.16-5.06-.84-1.83-1.16-3.65-.94-5.48.21-1.83.95-3.52 2.2-5.08 1.25-1.56 2.75-2.64 4.49-3.24 1.74-.6 3.59-.69 5.55-.25 1.96.43 3.91 1.42 5.84 2.97Zm-1.72 2.14c-1.58-1.27-3.13-2.08-4.64-2.43-1.51-.35-2.91-.3-4.19.15-1.28.45-2.36 1.22-3.25 2.33-.89 1.11-1.41 2.33-1.58 3.68-.16 1.35.09 2.72.76 4.12s1.79 2.74 3.37 4.01c1.58 1.27 3.13 2.08 4.64 2.43 1.51.35 2.91.3 4.19-.15 1.28-.44 2.36-1.22 3.25-2.33.89-1.11 1.41-2.33 1.57-3.68.16-1.35-.09-2.72-.76-4.12s-1.79-2.74-3.37-4.01h.01ZM49.224 41.98l-13.5-19.17 6.48-4.56c1.5-1.05 2.91-1.67 4.23-1.84 1.32-.17 2.52.03 3.61.59 1.09.56 2.03 1.41 2.82 2.53.8 1.13 1.27 2.29 1.42 3.49.15 1.2-.07 2.38-.68 3.55-.61 1.17-1.65 2.28-3.14 3.32l-5.24 3.69-1.48-2.1 5.17-3.64c1.02-.72 1.74-1.45 2.16-2.19.42-.74.57-1.49.47-2.24-.1-.75-.43-1.51-.97-2.28-.54-.77-1.16-1.34-1.85-1.71-.69-.37-1.46-.49-2.32-.37-.86.12-1.8.56-2.83 1.29l-4.08 2.87 12.05 17.11-2.32 1.63v.03Zm2.96-14.97 10.78 5.29-2.7 1.9-10.71-5.34 2.62-1.85h.01ZM65.344 31.38l-8.47-21.87 13.2-5.11.91 2.35-10.55 4.08 2.86 7.39 9.87-3.82.91 2.35-9.87 3.82 2.88 7.43 10.72-4.15.91 2.35-13.37 5.18ZM89.354 24.44l-7.2.76-2.47-23.32 7.51-.8c2.26-.24 4.25.02 5.95.78 1.71.76 3.08 1.96 4.12 3.6 1.04 1.64 1.69 3.67 1.95 6.09.26 2.43.05 4.56-.63 6.41-.68 1.84-1.8 3.32-3.35 4.43-1.56 1.11-3.52 1.79-5.89 2.04l.01.01Zm-4.64-2.04 4.19-.44c1.93-.2 3.49-.75 4.68-1.62 1.19-.88 2.02-2.04 2.5-3.48s.61-3.11.41-5.01c-.2-1.88-.68-3.47-1.44-4.77-.76-1.3-1.79-2.25-3.09-2.85-1.3-.6-2.86-.81-4.68-.61l-4.51.48 1.94 18.31v-.01ZM144.794 19.8c.11-.8.11-1.57 0-2.3a6.52 6.52 0 0 0-.63-2.05c-.32-.64-.75-1.21-1.29-1.72s-1.19-.95-1.96-1.32c-1.25-.6-2.55-.83-3.88-.67-1.34.15-2.61.71-3.82 1.68s-2.26 2.37-3.14 4.2c-.88 1.83-1.32 3.52-1.31 5.07 0 1.55.38 2.9 1.11 4.05.74 1.15 1.76 2.04 3.06 2.67 1.21.58 2.4.84 3.58.76 1.17-.07 2.25-.46 3.23-1.17.98-.7 1.78-1.7 2.4-2.99l.71.54-6.36-3.06 1.09-2.27 8.05 3.87-1.09 2.27c-.84 1.74-1.93 3.08-3.29 4.01a8.538 8.538 0 0 1-4.49 1.52c-1.64.08-3.29-.28-4.97-1.09-1.87-.9-3.3-2.13-4.29-3.69-.99-1.56-1.49-3.34-1.5-5.34 0-2 .53-4.12 1.6-6.35.8-1.67 1.75-3.07 2.85-4.19 1.09-1.12 2.28-1.95 3.56-2.5 1.28-.55 2.6-.8 3.97-.76 1.37.04 2.73.39 4.09 1.04 1.11.54 2.08 1.2 2.88 2 .8.8 1.44 1.68 1.91 2.66.47.98.75 2.01.86 3.09.1 1.09 0 2.19-.29 3.31l-2.64-1.27ZM143.264 37.64l15.89-17.25 2.09 1.92-7.07 7.68 9.2 8.47 7.07-7.68 2.09 1.92-15.89 17.25-2.09-1.92 7.1-7.71-9.2-8.47-7.1 7.71-2.09-1.92ZM179.364 64.21c-2.13 1.26-4.19 1.97-6.2 2.12-2.01.15-3.82-.19-5.46-1.04-1.63-.84-2.96-2.12-3.98-3.84-1.02-1.72-1.51-3.5-1.46-5.34.05-1.84.62-3.6 1.71-5.29 1.09-1.69 2.71-3.16 4.83-4.42 2.13-1.26 4.19-1.97 6.2-2.12 2-.15 3.82.2 5.46 1.04 1.63.84 2.96 2.12 3.98 3.84 1.02 1.72 1.51 3.5 1.46 5.34-.05 1.84-.62 3.6-1.71 5.29-1.09 1.69-2.7 3.16-4.83 4.42Zm-1.4-2.36c1.75-1.04 3.05-2.2 3.91-3.49.86-1.29 1.3-2.62 1.33-3.97.03-1.35-.31-2.64-1.04-3.86a7.188 7.188 0 0 0-2.89-2.77c-1.2-.62-2.58-.87-4.12-.74-1.55.13-3.19.71-4.94 1.75-1.75 1.04-3.05 2.2-3.91 3.49-.86 1.29-1.3 2.62-1.33 3.97-.03 1.35.31 2.64 1.04 3.86.73 1.22 1.69 2.14 2.89 2.77 1.2.63 2.58.87 4.12.74 1.55-.13 3.19-.71 4.94-1.75ZM190.344 81.57c1.09-.42 1.83-1.18 2.21-2.29.38-1.1.39-2.34.04-3.72-.26-1.01-.64-1.84-1.16-2.51-.52-.67-1.11-1.14-1.79-1.41-.68-.27-1.38-.32-2.1-.13-.61.15-1.09.43-1.45.84-.36.4-.62.87-.79 1.4-.17.53-.28 1.07-.33 1.62-.05.55-.08 1.05-.08 1.5l-.03 2.47c0 .63-.05 1.35-.14 2.14-.09.8-.28 1.59-.58 2.38-.3.79-.76 1.5-1.38 2.12-.62.62-1.46 1.07-2.53 1.34-1.23.31-2.42.28-3.57-.11s-2.18-1.12-3.08-2.19c-.9-1.07-1.57-2.49-2.01-4.23-.42-1.63-.51-3.1-.29-4.42.22-1.32.72-2.44 1.48-3.35.77-.92 1.76-1.58 2.98-1.98l.72 2.84c-.84.29-1.47.76-1.9 1.41-.43.65-.68 1.4-.75 2.25-.07.85 0 1.73.24 2.63.27 1.05.68 1.95 1.24 2.7.56.75 1.21 1.29 1.95 1.62.74.33 1.53.39 2.36.18.75-.19 1.31-.56 1.68-1.1.37-.54.61-1.2.73-1.96s.19-1.57.21-2.43l.09-3c.06-1.91.43-3.5 1.11-4.77.68-1.28 1.79-2.11 3.32-2.5 1.27-.32 2.47-.26 3.6.19s2.1 1.19 2.93 2.23c.83 1.04 1.43 2.28 1.8 3.73.37 1.46.44 2.83.21 4.1-.23 1.27-.71 2.36-1.44 3.26-.73.9-1.67 1.51-2.8 1.84l-.68-2.66-.02-.03ZM195.284 91.08l2.52.02-.11 17.59-2.52-.02.05-7.37-20.93-.14.02-2.84 20.93.14.05-7.37-.01-.01ZM187.344 128.49c1.16.17 2.17-.14 3.04-.92.87-.78 1.49-1.85 1.86-3.23.27-1 .34-1.92.21-2.76-.13-.84-.42-1.54-.87-2.11-.46-.57-1.05-.95-1.77-1.14-.6-.16-1.16-.15-1.67.02-.51.18-.97.46-1.37.84-.41.38-.77.8-1.08 1.25-.31.45-.58.88-.81 1.27l-1.23 2.14c-.31.55-.7 1.15-1.17 1.8-.47.65-1.02 1.25-1.67 1.79-.65.54-1.39.93-2.24 1.17-.85.24-1.8.22-2.86-.06-1.22-.33-2.25-.94-3.06-1.84-.82-.9-1.36-2.04-1.61-3.42-.26-1.38-.15-2.93.31-4.67.43-1.62 1.07-2.96 1.91-4 .84-1.04 1.82-1.78 2.93-2.2 1.12-.42 2.31-.52 3.57-.27l-.76 2.83c-.88-.15-1.66-.05-2.35.3-.69.36-1.28.89-1.75 1.59-.48.71-.83 1.51-1.07 2.41-.28 1.05-.36 2.03-.24 2.96.12.92.42 1.71.91 2.36.49.65 1.14 1.09 1.97 1.31.75.2 1.42.15 2-.14.58-.3 1.12-.75 1.59-1.35.48-.61.93-1.28 1.37-2.02l1.54-2.58c.98-1.63 2.08-2.84 3.3-3.62 1.22-.78 2.59-.97 4.12-.56 1.27.34 2.28.98 3.05 1.92.76.94 1.25 2.07 1.47 3.38.22 1.31.13 2.69-.25 4.13-.39 1.46-1 2.69-1.82 3.69-.82 1-1.77 1.71-2.85 2.14-1.08.43-2.19.51-3.35.24l.71-2.66-.01.01ZM153.844 151l5.06-5.17 16.75 16.41-5.29 5.4c-1.59 1.62-3.29 2.69-5.09 3.19-1.8.5-3.62.45-5.47-.15-1.85-.6-3.64-1.76-5.38-3.45-1.75-1.71-2.94-3.49-3.59-5.34-.65-1.85-.73-3.7-.24-5.55.49-1.85 1.57-3.62 3.24-5.33l.01-.01Zm4.88-1.38-2.95 3.01c-1.36 1.39-2.21 2.79-2.57 4.23-.36 1.43-.26 2.86.29 4.27.55 1.41 1.51 2.79 2.87 4.12 1.35 1.32 2.73 2.25 4.15 2.76 1.41.52 2.81.6 4.2.23 1.39-.36 2.72-1.2 4-2.51l3.17-3.24-13.15-12.88-.01.01ZM143.124 160.76l11.95 20.17-12.17 7.22-1.28-2.17 9.73-5.77-4.04-6.82-9.1 5.39-1.28-2.17 9.1-5.39-4.06-6.86-9.89 5.86-1.28-2.17 12.33-7.31-.01.02ZM133.034 192.39l-12.16-17.04-.26.08-1.22 20.9-2.86.83 1.77-24.92 2.82-.81 14.77 20.14-2.86.83v-.01ZM107.644 174.57l.6 23.44-14.15.36-.07-2.52 11.31-.29-.2-7.92-10.58.27-.06-2.52 10.58-.27-.2-7.97-11.49.29-.06-2.52 14.33-.37-.01.02ZM89.634 174.45l-4.77 22.96-2.78-.58 4.26-20.49-10.67-2.22.51-2.47 13.45 2.79v.01ZM51.104 172.99c1.09-2.22 2.43-3.94 4.03-5.17 1.6-1.22 3.31-1.93 5.14-2.12 1.83-.19 3.64.15 5.44 1.03 1.8.88 3.18 2.1 4.15 3.66.97 1.56 1.46 3.35 1.46 5.36 0 2.01-.53 4.13-1.62 6.35-1.09 2.22-2.43 3.94-4.03 5.17-1.59 1.22-3.31 1.93-5.14 2.12-1.83.19-3.64-.15-5.44-1.03-1.8-.88-3.18-2.1-4.15-3.67-.97-1.56-1.46-3.35-1.46-5.36 0-2.01.53-4.13 1.62-6.35v.01Zm2.47 1.21c-.89 1.82-1.35 3.51-1.35 5.06 0 1.55.34 2.9 1.06 4.05s1.71 2.04 2.98 2.66c1.27.63 2.59.87 3.93.73 1.35-.14 2.63-.69 3.85-1.64 1.22-.96 2.28-2.35 3.17-4.17.89-1.82 1.35-3.51 1.35-5.06 0-1.55-.34-2.9-1.06-4.05s-1.71-2.04-2.98-2.66c-1.27-.63-2.59-.87-3.93-.73-1.35.14-2.63.69-3.85 1.64-1.22.96-2.28 2.35-3.17 4.17ZM53.744 160.26l-15.72 17.39-5.88-5.31c-1.36-1.23-2.26-2.49-2.69-3.76-.43-1.27-.47-2.52-.14-3.73.33-1.21.96-2.33 1.89-3.35.93-1.02 1.98-1.77 3.15-2.23 1.17-.46 2.42-.55 3.73-.26 1.31.29 2.65 1.04 4 2.27l4.21 3.81-1.69 1.87-4.14-3.75c-.93-.84-1.83-1.36-2.69-1.55-.86-.19-1.67-.12-2.42.19-.76.32-1.45.83-2.08 1.52-.63.7-1.06 1.44-1.3 2.22-.24.78-.21 1.59.07 2.42.29.83.9 1.67 1.85 2.53l3.7 3.35 14.04-15.53 2.11 1.91v-.01ZM19.654 158.57l18.58-14.3 1.73 2.25-18.58 14.3-1.73-2.25ZM5.914 134.4l21.06-10.31 1.21 2.47-10.91 19.57.1.21 16.53-8.1 1.25 2.55-21.06 10.31-1.21-2.47L23.814 129l-.1-.21-16.58 8.12-1.23-2.51h.01ZM7.314 106.8c-.72.37-1.36.8-1.9 1.3-.54.5-.99 1.06-1.33 1.68-.34.62-.57 1.3-.69 2.04s-.11 1.52.03 2.36c.22 1.37.77 2.56 1.65 3.58.89 1.01 2.07 1.74 3.56 2.19 1.49.45 3.23.51 5.24.19 2.01-.32 3.64-.92 4.92-1.81 1.27-.89 2.17-1.96 2.7-3.22.53-1.26.68-2.6.45-4.04-.21-1.33-.68-2.45-1.41-3.38a6 6 0 0 0-2.8-1.99c-1.13-.4-2.41-.49-3.83-.27l.05-.89 1.1 6.97-2.49.39-1.39-8.82 2.49-.39c1.91-.3 3.63-.16 5.17.43s2.81 1.53 3.8 2.83c.99 1.3 1.64 2.87 1.93 4.71.32 2.05.13 3.93-.59 5.63-.72 1.7-1.9 3.13-3.55 4.27-1.64 1.14-3.69 1.91-6.13 2.3-1.83.29-3.52.3-5.07.04-1.54-.26-2.9-.76-4.08-1.51a9.188 9.188 0 0 1-2.88-2.84c-.74-1.15-1.24-2.47-1.47-3.95-.19-1.22-.19-2.39 0-3.51.2-1.12.57-2.14 1.1-3.08.53-.94 1.22-1.76 2.06-2.46.84-.7 1.8-1.25 2.89-1.64l.46 2.89h.01ZM10.694 91.49a3.36 3.36 0 1 0 0-6.72 3.36 3.36 0 0 0 0 6.72ZM114.264 16.24a3.36 3.36 0 1 0 0-6.72 3.36 3.36 0 0 0 0 6.72ZM176.224 145.25a3.36 3.36 0 1 0 0-6.72 3.36 3.36 0 0 0 0 6.72Z"/></svg>